<svg width="24" height="24" viewBox="0 0 24 24" fill="none" xmlns="http://www.w3.org/2000/svg">
<path opacity="0.4" d="M2 12.8899V11.1299C2 10.0899 2.85 9.22995 3.9 9.22995C5.71 9.22995 6.45 7.94995 5.54 6.37995C5.02 5.47995 5.33 4.30995 6.24 3.78995L7.97 2.79995C8.76 2.32995 9.78 2.60995 10.25 3.39995L10.36 3.58995C11.26 5.15995 12.74 5.15995 13.65 3.58995L13.76 3.39995C14.23 2.60995 15.25 2.32995 16.04 2.79995L17.77 3.78995C18.68 4.30995 18.99 5.47995 18.47 6.37995C17.56 7.94995 18.3 9.22995 20.11 9.22995C21.15 9.22995 22.01 10.0799 22.01 11.1299V12.8899C22.01 13.9299 21.16 14.7899 20.11 14.7899C18.3 14.7899 17.56 16.0699 18.47 17.6399C18.99 18.5499 18.68 19.7099 17.77 20.2299L16.04 21.2199C15.25 21.6899 14.23 21.4099 13.76 20.6199L13.65 20.4299C12.75 18.8599 11.27 18.8599 10.36 20.4299L10.25 20.6199C9.78 21.4099 8.76 21.6899 7.97 21.2199L6.24 20.2299C5.33 19.7099 5.02 18.5399 5.54 17.6399C6.45 16.0699 5.71 14.7899 3.9 14.7899C2.85 14.7899 2 13.9299 2 12.8899Z" fill="#B68050"/>
<path d="M12 15.26C13.7949 15.26 15.25 13.8049 15.25 12.01C15.25 10.2151 13.7949 8.76001 12 8.76001C10.2051 8.76001 8.75 10.2151 8.75 12.01C8.75 13.8049 10.2051 15.26 12 15.26Z" fill="#B68050"/>
</svg>
