<svg width="24" height="24" viewBox="0 0 24 24" fill="none" xmlns="http://www.w3.org/2000/svg">
<path opacity="0.4" d="M9 7.21001V16.8C9 20.01 11 22.01 14.2 22.01H16.79C19.99 22.01 21.99 20.01 21.99 16.81V7.21001C22 4.01001 20 2.01001 16.8 2.01001H14.2C11 2.01001 9 4.01001 9 7.21001Z" fill="#DC2626"/>
<path d="M12.43 8.13003L15.78 11.48C16.07 11.77 16.07 12.25 15.78 12.54L12.43 15.89C12.14 16.18 11.66 16.18 11.37 15.89C11.08 15.6 11.08 15.12 11.37 14.83L13.44 12.76H2.75C2.34 12.76 2 12.42 2 12.01C2 11.6 2.34 11.26 2.75 11.26H13.44L11.37 9.19003C11.22 9.04003 11.15 8.85003 11.15 8.66003C11.15 8.47003 11.22 8.28003 11.37 8.13003C11.66 7.83003 12.13 7.83003 12.43 8.13003Z" fill="#DC2626"/>
</svg>
