<svg width="24" height="24" viewBox="0 0 24 24" fill="none" xmlns="http://www.w3.org/2000/svg">
<path opacity="0.4" d="M12 2.01001C9.38 2.01001 7.25 4.14001 7.25 6.76001C7.25 9.33001 9.26 11.41 11.88 11.5C11.96 11.49 12.04 11.49 12.1 11.5C12.12 11.5 12.13 11.5 12.15 11.5C12.16 11.5 12.16 11.5 12.17 11.5C14.73 11.41 16.74 9.33001 16.75 6.76001C16.75 4.14001 14.62 2.01001 12 2.01001Z" fill="#B68050"/>
<path d="M17.08 14.1599C14.29 12.2999 9.73996 12.2999 6.92996 14.1599C5.65996 15.0099 4.95996 16.1599 4.95996 17.3899C4.95996 18.6199 5.65996 19.7599 6.91996 20.5999C8.31996 21.5399 10.16 22.0099 12 22.0099C13.84 22.0099 15.68 21.5399 17.08 20.5999C18.34 19.7499 19.04 18.6099 19.04 17.3699C19.03 16.1399 18.34 14.9999 17.08 14.1599Z" fill="#B68050"/>
</svg>
