<svg width="24" height="24" viewBox="0 0 24 24" fill="none" xmlns="http://www.w3.org/2000/svg">
<path opacity="0.4" d="M21.3 10.8501C21.69 10.8501 22 10.5401 22 10.1501V9.22012C22 5.12012 20.75 3.87012 16.65 3.87012H7.35C3.25 3.87012 2 5.12012 2 9.22012V9.69012C2 10.0801 2.31 10.3901 2.7 10.3901C3.6 10.3901 4.33 11.1201 4.33 12.0201C4.33 12.9201 3.6 13.6401 2.7 13.6401C2.31 13.6401 2 13.9501 2 14.3401V14.8101C2 18.9101 3.25 20.1601 7.35 20.1601H16.65C20.75 20.1601 22 18.9101 22 14.8101C22 14.4201 21.69 14.1101 21.3 14.1101C20.4 14.1101 19.67 13.3801 19.67 12.4801C19.67 11.5801 20.4 10.8501 21.3 10.8501Z" fill="#B68050"/>
<path d="M15.0002 15.8899C14.4402 15.8899 13.9902 15.4399 13.9902 14.8899C13.9902 14.3399 14.4402 13.8899 14.9902 13.8899C15.5402 13.8899 15.9902 14.3399 15.9902 14.8899C15.9902 15.4399 15.5602 15.8899 15.0002 15.8899Z" fill="#B68050"/>
<path d="M9.00023 10.8899C8.44023 10.8899 7.99023 10.4399 7.99023 9.88989C7.99023 9.33989 8.44023 8.88989 8.99023 8.88989C9.54023 8.88989 9.99023 9.33989 9.99023 9.88989C9.99023 10.4399 9.56023 10.8899 9.00023 10.8899Z" fill="#B68050"/>
<path d="M8.63031 16.4399C8.44031 16.4399 8.25031 16.3699 8.10031 16.2199C7.81031 15.9299 7.81031 15.4499 8.10031 15.1599L14.8303 8.4299C15.1203 8.1399 15.6003 8.1399 15.8903 8.4299C16.1803 8.7199 16.1803 9.1999 15.8903 9.4899L9.16031 16.2199C9.02031 16.3699 8.82031 16.4399 8.63031 16.4399Z" fill="#B68050"/>
</svg>
