<svg width="24" height="24" viewBox="0 0 24 24" fill="none" xmlns="http://www.w3.org/2000/svg">
<path opacity="0.4" d="M12 22.01C17.5228 22.01 22 17.5329 22 12.01C22 6.48716 17.5228 2.01001 12 2.01001C6.47715 2.01001 2 6.48716 2 12.01C2 17.5329 6.47715 22.01 12 22.01Z" fill="#B68050"/>
<path d="M12.3296 17.0099C12.1496 17.0699 11.8396 17.0699 11.6596 17.0099C10.0996 16.4799 6.59961 14.2499 6.59961 10.4699C6.59961 8.79994 7.93961 7.44995 9.59961 7.44995C10.5796 7.44995 11.4496 7.91994 11.9996 8.65994C12.5396 7.92994 13.4196 7.44995 14.3996 7.44995C16.0596 7.44995 17.3996 8.79994 17.3996 10.4699C17.3996 14.2499 13.8996 16.4799 12.3296 17.0099Z" fill="#B68050"/>
</svg>
